# xmcd CD database file
# Copyright (C) 1993-1998 Ti Kan
#
# Track frame offsets:
#	182
#	11470
#	20920
#	32245
#	46797
#	58272
#	69070
#	81672
#	90970
#	103197
#	118195
#	129520
#	145272
#	159972
#	171295
#	181795
#
# Disc length: 2647 seconds
#
# Revision: 1
# Processed by: cddbd v1.4b41PL1 Copyright (c) Steve Scherf et al.
# Submitted via: NotifyCDPlayer(CDDB) 1.51.3
#
DISCID=d20a5510
DTITLE=Various Artist - Country Monuments
DYEAR=1900
DGENRE=
TTITLE0=Dumb Blonde (Dolly Parton)
TTITLE1=Bonaparte's Retreat (Billy Grammer)
TTITLE2=Little Ole Wine Drinker Me (Robert Mitchum)
TTITLE3=Don't Touch Me (Jeannie Seely)
TTITLE4=You Left Me A Long, Long Time Ago (Willie Neslon)
TTITLE5=None Of My Business (Henson Cargill)
TTITLE6=Hold What You've Got (Sonny James)
TTITLE7=Yakety Sax (Boots Randolph)
TTITLE8=A Million And One (Billy Walker)
TTITLE9=I Just Want To Be Your Everything (Connie Smith)
TTITLE10=Blue Bayou (Roy Orbison)
TTITLE11=Why Me (Kris Kristofferson)
TTITLE12=Everything's Beautiful In It's Own Way (Dolly Parton/Willie Nelson)
TTITLE13=Everybody Wants To Go To Heaven (Ed Bruce)
TTITLE14=Grandpa Jones (T For Texas)
TTITLE15=Orange Blossom Special (Charlie McCoy)
EXTD=
EXTT0=
EXTT1=
EXTT2=
EXTT3=
EXTT4=
EXTT5=
EXTT6=
EXTT7=
EXTT8=
EXTT9=
EXTT10=
EXTT11=
EXTT12=
EXTT13=
EXTT14=
EXTT15=
PLAYORDER=
